<?xml version="1.0" encoding="UTF-8"?>
<svg width="1600px" height="800px" viewBox="0 0 1600 800" version="1.1" xmlns="http://www.w3.org/2000/svg" xmlns:xlink="http://www.w3.org/1999/xlink">
    <!-- Generator: Sketch 48.2 (47327) - http://www.bohemiancoding.com/sketch -->
    <title>Group</title>
    <desc>Created with Sketch.</desc>
    <defs>
        <rect id="path-1" x="0" y="0" width="1600" height="800"></rect>
    </defs>
    <g id="Page-2" stroke="none" stroke-width="1" fill="none" fill-rule="evenodd">
        <g id="Group">
            <mask id="mask-2" fill="white">
                <use xlink:href="#path-1"></use>
            </mask>
            <g id="Mask"></g>
            <g mask="url(#mask-2)">
                <g transform="translate(-98.000000, -289.000000)">
                    <polygon id="Polygon" stroke="#4680FF" stroke-width="1" points="413.551758 685.220691 501.744267 738.086573 501.744267 843.818338 413.551758 896.68422 325.359249 843.818338 325.359249 738.086573"></polygon>
                    <polygon id="Polygon" stroke="#4680FF" stroke-width="1" points="381.192509 535 469.385018 587.865882 469.385018 693.597647 381.192509 746.463529 293 693.597647 293 587.865882"></polygon>
                    <polygon id="Polygon" stroke="#4680FF" stroke-width="1" points="295.192509 781 383.385018 833.865882 383.385018 939.597647 295.192509 992.463529 207 939.597647 207 833.865882"></polygon>
                    <polygon id="Polygon" stroke="#4680FF" stroke-width="1" points="696.192509 746 784.385018 798.865882 784.385018 904.597647 696.192509 957.463529 608 904.597647 608 798.865882"></polygon>
                    <polygon id="Polygon" stroke="#4680FF" stroke-width="1" points="829.192509 821 917.385018 873.865882 917.385018 979.597647 829.192509 1032.46353 741 979.597647 741 873.865882"></polygon>
                    <polygon id="Polygon" stroke="#4680FF" stroke-width="1" points="557.192509 781 645.385018 833.865882 645.385018 939.597647 557.192509 992.463529 469 939.597647 469 833.865882"></polygon>
                    <polygon id="Polygon" stroke="#4680FF" stroke-width="1" points="589.936776 553.352941 678.129285 606.218824 678.129285 711.950588 589.936776 764.816471 501.744267 711.950588 501.744267 606.218824"></polygon>
                    <polygon id="Polygon" stroke="#4680FF" stroke-width="1" points="829.192509 569.075294 917.385018 621.941176 917.385018 727.672941 829.192509 780.538824 741 727.672941 741 621.941176"></polygon>
                    <polygon id="Polygon" stroke="none" points="990.344853 746 1078.53736 798.865882 1078.53736 904.597647 990.344853 957.463529 902.152344 904.597647 902.152344 798.865882"></polygon>
                    <polygon id="Polygon" stroke="#4E48EB" stroke-width="1" points="1128.19251 791 1216.38502 843.865882 1216.38502 949.597647 1128.19251 1002.46353 1040 949.597647 1040 843.865882"></polygon>
                    <polygon id="Polygon" stroke="#3845F1" stroke-width="1" points="943.192509 645 1031.38502 697.865882 1031.38502 803.597647 943.192509 856.463529 855 803.597647 855 697.865882"></polygon>
                    <polygon id="Polygon" stroke="#6660ED" stroke-width="1" points="1128.19251 510 1216.38502 562.865882 1216.38502 668.597647 1128.19251 721.463529 1040 668.597647 1040 562.865882"></polygon>
                    <polygon id="Polygon" stroke="#6660ED" stroke-width="1" points="784.192509 445 872.385018 497.865882 872.385018 603.597647 784.192509 656.463529 696 603.597647 696 497.865882"></polygon>
                    <path d="M207.265499,393.09875 L207.265499,708.053853 C207.265499,731.588688 226.342639,750.671636 249.87264,750.671636 L577.636852,750.671636 C601.16238,750.671636 620.243994,731.584504 620.243994,708.045997 L620.243994,393.099271 C620.243994,369.552427 601.170899,350.473632 577.636852,350.473632 L249.87264,350.473632 C226.347112,350.473632 207.265499,369.560532 207.265499,393.09875 Z" id="Rectangle-2" stroke="#4680FF" stroke-width="1" opacity="0.7"></path>
                    <rect id="Rectangle-2" stroke="#534DEB" stroke-width="1" opacity="0.7" x="736.425655" y="302.120691" width="412.978495" height="382.873544" rx="43.1160164"></rect>
                    <rect id="Rectangle-2" stroke="#4680FF" stroke-width="1" opacity="0.7" x="266.5" y="594.212146" width="549" height="492.291181" rx="43.1160164"></rect>
                    <path d="M414.16003,434.996105 L414.16003,797.375237 C414.16003,820.906294 433.245096,839.991827 456.781303,839.991827 L1084.64765,839.991827 C1108.18576,839.991827 1127.27293,820.910003 1127.27293,797.375237 L1127.27293,434.996105 C1127.27293,411.465026 1108.19171,392.379515 1084.66029,392.379515 L456.772675,392.379515 C433.242633,392.379515 414.16003,411.461868 414.16003,434.996105 Z" id="Rectangle-2" stroke="#5846EE" stroke-width="1" opacity="0.7"></path>
                    <polygon id="Polygon" stroke="#4680FF" stroke-width="1" points="1023.19251 449 1111.38502 501.865882 1111.38502 607.597647 1023.19251 660.463529 935 607.597647 935 501.865882"></polygon>
                    <polygon id="Polygon" stroke="#4680FF" stroke-width="1" points="991.192509 299 1079.38502 351.865882 1079.38502 457.597647 991.192509 510.463529 903 457.597647 903 351.865882"></polygon>
                    <polygon id="Polygon" stroke="#4680FF" stroke-width="1" points="905.192509 545 993.385018 597.865882 993.385018 703.597647 905.192509 756.463529 817 703.597647 817 597.865882"></polygon>
                    <polygon id="Polygon" stroke="#4680FF" stroke-width="1" points="1306.19251 510 1394.38502 562.865882 1394.38502 668.597647 1306.19251 721.463529 1218 668.597647 1218 562.865882"></polygon>
                    <polygon id="Polygon" stroke="#4680FF" stroke-width="1" points="1439.19251 585 1527.38502 637.865882 1527.38502 743.597647 1439.19251 796.463529 1351 743.597647 1351 637.865882"></polygon>
                    <polygon id="Polygon" stroke="#4680FF" stroke-width="1" points="1167.19251 545 1255.38502 597.865882 1255.38502 703.597647 1167.19251 756.463529 1079 703.597647 1079 597.865882"></polygon>
                    <polygon id="Polygon" stroke="#4680FF" stroke-width="1" points="1199.19251 317 1287.38502 369.865882 1287.38502 475.597647 1199.19251 528.463529 1111 475.597647 1111 369.865882"></polygon>
                    <polygon id="Polygon" stroke="#4680FF" stroke-width="1" points="1439.19251 333 1527.38502 385.865882 1527.38502 491.597647 1439.19251 544.463529 1351 491.597647 1351 385.865882"></polygon>
                    <polygon id="Polygon" stroke="none" points="1600.19251 510 1688.38502 562.865882 1688.38502 668.597647 1600.19251 721.463529 1512 668.597647 1512 562.865882"></polygon>
                    <polygon id="Polygon" stroke="#4E48EB" stroke-width="1" points="1698.19251 569 1786.38502 621.865882 1786.38502 727.597647 1698.19251 780.463529 1610 727.597647 1610 621.865882"></polygon>
                    <polygon id="Polygon" stroke="#3845F1" stroke-width="1" points="1553.19251 409 1641.38502 461.865882 1641.38502 567.597647 1553.19251 620.463529 1465 567.597647 1465 461.865882"></polygon>
                    <polygon id="Polygon" stroke="#6660ED" stroke-width="1" points="986.192509 876 1074.38502 928.865882 1074.38502 1034.59765 986.192509 1087.46353 898 1034.59765 898 928.865882"></polygon>
                    <polygon id="Polygon" stroke="#6660ED" stroke-width="1" points="1394.19251 209 1482.38502 261.865882 1482.38502 367.597647 1394.19251 420.463529 1306 367.597647 1306 261.865882"></polygon>
                    <path d="M0.5,639.125118 L0.5,954.08022 C0.5,977.615056 19.5771405,996.698003 43.1071413,996.698003 L370.871353,996.698003 C394.396881,996.698003 413.478495,977.610872 413.478495,954.072365 L413.478495,639.125638 C413.478495,615.578794 394.4054,596.5 370.871353,596.5 L43.1071413,596.5 C19.5816126,596.5 0.5,615.5869 0.5,639.125118 Z" id="Rectangle-2" stroke="#4680FF" stroke-width="1" opacity="0.7"></path>
                    <rect id="Rectangle-2" stroke="#534DEB" stroke-width="1" opacity="0.7" x="1199.5" y="766.5" width="412.978495" height="382.873544" rx="43.1160164"></rect>
                    <rect id="Rectangle-2" stroke="#4680FF" stroke-width="1" opacity="0.7" x="876.5" y="358.5" width="549" height="492.291181" rx="43.1160164"></rect>
                    <path d="M251.5,43.1165905 L251.5,405.495722 C251.5,429.026779 270.585066,448.112313 294.121273,448.112313 L921.987621,448.112313 C945.525731,448.112313 964.612903,429.030488 964.612903,405.495722 L964.612903,43.1165905 C964.612903,19.585511 945.531678,0.5 922.000258,0.5 L294.112645,0.5 C270.582603,0.5 251.5,19.5823536 251.5,43.1165905 Z" id="Rectangle-2" stroke="#5846EE" stroke-width="1" opacity="0.7"></path>
                </g>
            </g>
        </g>
    </g>
</svg>