<?xml version="1.0" encoding="UTF-8"?>
<svg width="1200px" height="1030px" viewBox="0 0 1200 1030" version="1.1" xmlns="http://www.w3.org/2000/svg" xmlns:xlink="http://www.w3.org/1999/xlink">
    <!-- Generator: Sketch 52.4 (67378) - http://www.bohemiancoding.com/sketch -->
    <title>Artboard</title>
    <desc>Created with Sketch.</desc>
    <g id="Artboard" stroke="none" stroke-width="1" fill="none" fill-rule="evenodd">
        <rect id="Rectangle" fill-rule="nonzero" x="34" y="0" width="1167" height="1030"></rect>
        <circle id="Oval" fill="#F3F2FF" fill-rule="nonzero" cx="597" cy="484" r="314"></circle>
        <path d="M338.993716,384 L526,499.422535 L338.993716,593 C320.331239,559.371506 311,524.538173 311,488.5 C311,452.461827 320.331239,417.628494 338.993716,384 Z" id="Path-2" fill="#FFAB00" fill-rule="nonzero"></path>
        <path d="M695.993716,389 L883,504.422535 L695.993716,598 C677.331239,564.371506 668,529.538173 668,493.5 C668,457.461827 677.331239,422.628494 695.993716,389 Z" id="Path-2" fill="#FFAB00" fill-rule="nonzero" transform="translate(775.500000, 493.500000) scale(-1, 1) translate(-775.500000, -493.500000) "></path>
        <path d="M599.324421,217 L591.157895,819.545579" id="Line" stroke="#979797" stroke-linecap="square" fill-rule="nonzero"></path>
        <path d="M595.18108,194.147114 L587.014554,796.692693" id="Line" stroke="#979797" stroke-linecap="square" fill-rule="nonzero" transform="translate(591.356659, 495.647114) rotate(60.000000) translate(-591.356659, -495.647114) "></path>
        <path d="M595.18108,194.147114 L587.014554,796.692693" id="Line" stroke="#979797" stroke-linecap="square" fill-rule="nonzero" transform="translate(591.356659, 495.647114) rotate(-60.000000) translate(-591.356659, -495.647114) "></path>
        <circle id="Oval" fill="#443FA6" fill-rule="nonzero" cx="597.5" cy="493.5" r="122.5"></circle>
        <g id="coaching" transform="translate(833.000000, 593.000000)">
            <circle id="Oval" fill="#00B8D9" fill-rule="nonzero" cx="50" cy="50" r="50"></circle>
            <g id="users2" transform="translate(20.000000, 27.000000)" fill="#FFFFFF">
                <path d="M55.5,45 L22.5,45 C20.019,45 18,42.981 18,40.5 C18,40.356 18.033,36.93 20.772,33.555 C22.347,31.617 24.495,30.081 27.156,28.989 C30.369,27.669 34.356,27.003 39,27.003 C43.644,27.003 47.628,27.672 50.844,28.989 C53.505,30.081 55.653,31.617 57.228,33.555 C59.97,36.93 60,40.356 60,40.5 C60,42.981 57.981,45 55.5,45 Z M21,40.509 C21.003,41.334 21.675,42 22.5,42 L55.5,42 C56.325,42 56.997,41.331 57,40.509 C56.997,40.404 56.904,37.824 54.783,35.307 C51.861,31.836 46.404,30.003 39,30.003 C31.596,30.003 26.139,31.839 23.217,35.307 C21.096,37.827 21.003,40.404 21,40.509 Z" id="Shape" fill-rule="nonzero"></path>
                <path d="M39,24 C32.382,24 27,18.618 27,12 C27,5.382 32.382,0 39,0 C45.618,0 51,5.382 51,12 C51,18.618 45.618,24 39,24 Z M39,3 C34.038,3 30,7.038 30,12 C30,16.962 34.038,21 39,21 C43.962,21 48,16.962 48,12 C48,7.038 43.962,3 39,3 Z" id="Shape" fill-rule="nonzero"></path>
                <path d="M13.5,45 L4.5,45 C2.019,45 0,42.981 0,40.5 C0,40.389 0.024,37.719 1.989,35.1 C3.123,33.585 4.671,32.388 6.588,31.536 C8.88,30.516 11.712,30 15.003,30 C15.54,30 16.071,30.015 16.584,30.042 C17.412,30.087 18.045,30.792 18.003,31.62 C17.961,32.448 17.253,33.084 16.425,33.039 C15.966,33.015 15.489,33.003 15.006,33.003 C3.324,33.003 3.015,40.14 3.006,40.512 C3.009,41.334 3.681,42.003 4.506,42.003 L13.506,42.003 C14.334,42.003 15.006,42.675 15.006,43.503 C15.006,44.331 14.334,45.003 13.506,45.003 L13.5,45 Z" id="Path"></path>
                <path d="M15,27 C10.038,27 6,22.962 6,18 C6,13.038 10.038,9 15,9 C19.962,9 24,13.038 24,18 C24,22.962 19.962,27 15,27 Z M15,12 C11.691,12 9,14.691 9,18 C9,21.309 11.691,24 15,24 C18.309,24 21,21.309 21,18 C21,14.691 18.309,12 15,12 Z" id="Shape" fill-rule="nonzero"></path>
            </g>
        </g>
        <g id="kpis" transform="translate(547.000000, 749.000000)" fill-rule="nonzero">
            <circle id="Oval" fill="#00B8D9" cx="50" cy="50" r="50"></circle>
            <g id="trophy2" transform="translate(24.000000, 23.000000)" fill="#FFFFFF">
                <path d="M50.8651579,6.24126316 C50.5951579,5.89168421 50.1802105,5.68421053 49.7368421,5.68421053 L42.4951579,5.68421053 C42.5889474,4.11252632 42.6315789,2.67442105 42.6315789,1.42105263 C42.6315789,0.636631579 41.9949474,0 41.2105263,0 L9.94452632,0 C9.16294737,0 8.52915789,0.630947368 8.52347368,1.41252632 C8.51778947,2.59768421 8.55473684,4.04147368 8.64568421,5.68421053 L1.42105263,5.68421053 C0.977684211,5.68421053 0.562736842,5.88884211 0.292736842,6.24126316 C0.0227368421,6.59368421 -0.0653684211,7.04842105 0.0483157895,7.47473684 C0.110842105,7.71063158 1.63705263,13.3152632 4.01589474,19.0193684 C7.09105263,26.3974737 10.0923158,30.3792632 13.1532632,31.1295789 C14.6311579,35.586 16.6376842,39.8974737 19.3035789,42.5804211 C20.6393684,43.9218947 22.0717895,44.8029474 23.5866316,45.2093684 C22.3190526,47.9093684 20.2841053,50.0835789 17.8370526,51.3056842 C17.2487368,51.6012632 16.9389474,52.2606316 17.0895789,52.9029474 C17.2402105,53.5452632 17.8143158,53.9971579 18.4736842,53.9971579 L32.6842105,53.9971579 C33.3435789,53.9971579 33.9148421,53.5452632 34.0683158,52.9029474 C34.2217895,52.2606316 33.9091579,51.6012632 33.3208421,51.3056842 C30.8737895,50.0835789 28.8416842,47.9093684 27.5712632,45.2093684 C29.9387368,44.5755789 32.0958947,42.7850526 34.0057895,39.8662105 C35.478,37.6181053 36.8109474,34.6878947 37.9818947,31.1295789 C41.0741053,30.3821053 44.0867368,26.4003158 47.1590526,19.0165263 C49.5322105,13.3095789 51.0442105,7.70494737 51.1067368,7.46905263 C51.2204211,7.04273684 51.1294737,6.58515789 50.8623158,6.23557895 L50.8651579,6.24126316 Z M10.584,25.4766316 C9.30789474,23.6804211 7.98347368,21.1481053 6.65052632,17.9507368 C5.13284211,14.3128421 3.95052632,10.6351579 3.31389474,8.52631579 L8.84463158,8.52631579 C9.19136842,12.6814737 9.84221053,17.6636842 10.9165263,22.7311579 C11.2121053,24.1266316 11.5616842,25.6215789 11.9709474,27.1506316 C11.5218947,26.7044211 11.0557895,26.1416842 10.584,25.4766316 Z M22.8334737,51.1578947 C23.8935789,50.1091579 24.8201053,48.8898947 25.5789474,47.5455789 C26.3377895,48.8898947 27.2643158,50.1091579 28.3244211,51.1578947 L22.8363158,51.1578947 L22.8334737,51.1578947 Z M25.5789474,42.6315789 C24.0868421,42.6315789 22.6942105,41.9608421 21.3214737,40.5795789 C18.9767368,38.2206316 17.0867368,34.1933684 15.6088421,29.5095789 C15.5946316,29.4442105 15.5747368,29.3816842 15.5491579,29.322 C12.8150526,20.5597895 11.5133684,9.56084211 11.3797895,2.84494737 L39.7724211,2.84494737 C39.6217895,9.04357895 38.5162105,18.7038947 36.288,26.8976842 C36.0492632,27.7702105 35.8048421,28.6114737 35.5518947,29.4157895 C35.5518947,29.4186316 35.5490526,29.4214737 35.5490526,29.4271579 C32.8689474,37.9705263 29.3674737,42.6344211 25.5789474,42.6344211 L25.5789474,42.6315789 Z M44.5272632,17.9507368 C43.1971579,21.1481053 41.8727368,23.6775789 40.5909474,25.4737895 C40.1021053,26.1615789 39.6161053,26.7356842 39.15,27.1904211 C40.7728421,21.0742105 41.796,14.2218947 42.2848421,8.52631579 L47.8468421,8.52631579 C47.2158947,10.6351579 46.0392632,14.3128421 44.5244211,17.9507368 L44.5272632,17.9507368 Z" id="Shape"></path>
            </g>
        </g>
        <g id="smartfeeds" transform="translate(262.000000, 283.000000)">
            <circle id="Oval" fill="#00B8D9" fill-rule="nonzero" cx="50" cy="50" r="50"></circle>
            <g id="archery" transform="translate(25.000000, 24.000000)" fill="#FFFFFF">
                <path d="M43.0117,45.8521 C43.5193,45.4174 44.0107,44.9638 44.4886,44.4859 C49.3324,39.6421 52,33.1999 52,26.3473 C52,22.3432 51.1036,18.5065 49.3324,14.9452 C49.0003,14.2783 48.1903,14.0056 47.5234,14.3377 C46.8565,14.6698 46.5838,15.4798 46.9159,16.1467 C48.4981,19.33 49.3,22.7617 49.3,26.3473 C49.3,39.0022 39.0049,49.2973 26.35,49.2973 C13.6951,49.2973 3.4,39.0022 3.4,26.3473 C3.4,13.6924 13.6951,3.3973 26.35,3.3973 C29.9329,3.3973 33.3646,4.1992 36.5479,5.7814 C37.2148,6.1135 38.0248,5.8408 38.3569,5.1739 C38.689,4.507 38.4163,3.697 37.7494,3.3649 C34.1881,1.5964 30.3514,0.6973 26.3473,0.6973 C19.4947,0.6973 13.0552,3.3649 8.2114,8.2087 C3.3676,13.0525 0.6973,19.4947 0.6973,26.3446 C0.6973,33.1972 3.3649,39.6367 8.2114,44.4805 C8.6893,44.9584 9.1807,45.412 9.6883,45.8467 L6.2431,52.7398 C5.911,53.4067 6.181,54.2167 6.8479,54.5515 C7.0423,54.6487 7.2475,54.6946 7.45,54.6946 C7.9441,54.6946 8.422,54.4219 8.6596,53.9467 L11.8726,47.5207 C16.1035,50.4259 21.1066,51.9919 26.3527,51.9919 C31.5988,51.9919 36.6019,50.4259 40.8328,47.5207 L44.0458,53.9467 C44.2834,54.4192 44.7586,54.6946 45.2554,54.6946 C45.4579,54.6946 45.6631,54.6487 45.8575,54.5515 C46.5244,54.2194 46.7944,53.4067 46.4623,52.7398 L43.0171,45.8467 L43.0117,45.8521 Z" id="Path"></path>
                <path d="M26.35,41.2 C18.1609,41.2 11.5,34.5391 11.5,26.35 C11.5,18.1609 18.1609,11.5 26.35,11.5 C28.4155,11.5 30.4135,11.9158 32.29,12.7366 C32.9731,13.0363 33.2863,13.8301 32.9866,14.5132 C32.6869,15.1963 31.8931,15.5095 31.21,15.2098 C29.6764,14.5402 28.0402,14.2 26.35,14.2 C19.6513,14.2 14.2,19.6513 14.2,26.35 C14.2,33.0487 19.6513,38.5 26.35,38.5 C33.0487,38.5 38.5,33.0487 38.5,26.35 C38.5,24.2143 37.9384,22.1137 36.8746,20.275 C36.502,19.6297 36.7207,18.8035 37.366,18.4309 C38.0113,18.0583 38.8375,18.277 39.2101,18.9223 C40.5115,21.1714 41.1973,23.7391 41.1973,26.35 C41.1973,34.5391 34.5364,41.2 26.3473,41.2 L26.35,41.2 Z" id="Path"></path>
                <path d="M45.25,11.5 L41.2,11.5 L41.2,7.45 C41.2,6.7048 40.5952,6.1 39.85,6.1 C39.1048,6.1 38.5,6.7048 38.5,7.45 L38.5,12.2236 C36.6505,13.8031 30.022,19.6 25.297,25.5076 C24.8299,26.0908 24.9244,26.9386 25.5076,27.4057 C25.756,27.6055 26.053,27.7027 26.35,27.7027 C26.7469,27.7027 27.1384,27.5299 27.4057,27.1951 C32.0092,21.4414 38.7133,15.5986 40.3468,14.2027 L45.2527,14.2027 C45.9979,14.2027 46.6027,13.5979 46.6027,12.8527 C46.6027,12.1075 45.9979,11.5027 45.2527,11.5027 L45.25,11.5 Z" id="Path"></path>
                <path d="M50.65,8.8 L45.25,8.8 C44.5048,8.8 43.9,8.1952 43.9,7.45 L43.9,2.05 C43.9,1.3048 44.5048,0.7 45.25,0.7 C45.9952,0.7 46.6,1.3048 46.6,2.05 L46.6,6.1 L50.65,6.1 C51.3952,6.1 52,6.7048 52,7.45 C52,8.1952 51.3952,8.8 50.65,8.8 Z" id="Path"></path>
                <path d="M26.35,33.1 C22.6294,33.1 19.6,30.0706 19.6,26.35 C19.6,23.2693 21.6817,20.5801 24.6625,19.8133 C25.3861,19.627 26.1205,20.0617 26.3068,20.7853 C26.4931,21.5089 26.0584,22.2433 25.3348,22.4296 C23.5474,22.8886 22.2973,24.5032 22.2973,26.3527 C22.2973,28.5856 24.1144,30.4027 26.3473,30.4027 C28.5802,30.4027 30.3973,28.5856 30.3973,26.3527 C30.3973,25.6075 31.0021,25.0027 31.7473,25.0027 C32.4925,25.0027 33.0973,25.6075 33.0973,26.3527 C33.0973,30.0733 30.0679,33.1027 26.3473,33.1027 L26.35,33.1 Z" id="Path"></path>
            </g>
        </g>
        <g id="quizzes" transform="translate(548.000000, 138.000000)">
            <circle id="Oval" fill="#00B8D9" fill-rule="nonzero" cx="50" cy="50" r="50"></circle>
            <g id="brain" transform="translate(24.000000, 23.000000)" fill="#FFFFFF">
                <path d="M34.2105263,19.8947368 C33.4551579,19.8947368 32.8421053,19.2816842 32.8421053,18.5263158 C32.8421053,17.7709474 33.4551579,17.1578947 34.2105263,17.1578947 C34.9658947,17.1578947 35.5789474,16.5448421 35.5789474,15.7894737 C35.5789474,15.0341053 36.192,14.4210526 36.9473684,14.4210526 C37.7027368,14.4210526 38.3157895,15.0341053 38.3157895,15.7894737 C38.3157895,18.0528421 36.4738947,19.8947368 34.2105263,19.8947368 Z" id="Path"></path>
                <path d="M34.4431579,41.7894737 C33.8793684,41.7894737 33.3511579,41.4391579 33.1541053,40.8781053 C32.9461053,40.2924211 32.8421053,39.6793684 32.8421053,39.0526316 C32.8421053,36.0338947 35.2970526,33.5789474 38.3157895,33.5789474 C38.9397895,33.5789474 39.5555789,33.6829474 40.1412632,33.8909474 C40.8528421,34.1427368 41.2277895,34.9254737 40.976,35.6370526 C40.7242105,36.3486316 39.9414737,36.7235789 39.2298947,36.4717895 C38.9370526,36.3677895 38.6305263,36.3157895 38.3185263,36.3157895 C36.8105263,36.3157895 35.5816842,37.5446316 35.5816842,39.0526316 C35.5816842,39.3673684 35.6336842,39.6738947 35.7376842,39.964 C35.9894737,40.6755789 35.6172632,41.4583158 34.9029474,41.7101053 C34.7524211,41.7621053 34.5991579,41.7894737 34.4458947,41.7894737 L34.4431579,41.7894737 Z" id="Path"></path>
                <path d="M52,29.4736842 C52,22.7437895 49.9090526,16.3341053 45.9515789,10.9206316 C44.9307368,7.89368421 42.6181053,5.40863158 39.5501053,4.21536842 C38.0612632,2.11073684 35.6090526,0.734105263 32.8421053,0.734105263 C29.9903158,0.734105263 27.4724211,2.19557895 26,4.41242105 C24.5275789,2.19831579 22.0096842,0.734105263 19.1578947,0.734105263 C16.3909474,0.734105263 13.9387368,2.11073684 12.4498947,4.21536842 C9.37915789,5.40863158 7.06652632,7.89368421 6.04842105,10.9206316 C2.09094737,16.3341053 0,22.7437895 0,29.4736842 C0,31.2663158 0.153263158,33.0644211 0.454315789,34.8187368 C0.153263158,36.1816842 0,37.6021053 0,39.0526316 C0,43.3877895 1.39031579,47.4766316 3.91642105,50.5637895 C6.50821053,53.7303158 9.97578947,55.4736842 13.6842105,55.4736842 C14.404,55.4736842 15.1265263,55.4052632 15.8326316,55.2738947 C16.4648421,55.4052632 17.1189474,55.4736842 17.7894737,55.4736842 C21.2707368,55.4736842 24.3223158,53.6071579 26,50.8237895 C27.6776842,53.6071579 30.7292632,55.4736842 34.2105263,55.4736842 C34.8810526,55.4736842 35.5351579,55.4052632 36.1673684,55.2738947 C36.8762105,55.408 37.596,55.4736842 38.3157895,55.4736842 C42.0242105,55.4736842 45.4917895,53.7303158 48.0835789,50.5637895 C50.6096842,47.4766316 52,43.3877895 52,39.0526316 C52,37.5993684 51.8467368,36.1816842 51.5456842,34.8187368 C51.8467368,33.0644211 52,31.2690526 52,29.4736842 Z M17.7894737,52.7368421 C14.0181053,52.7368421 10.9473684,49.6661053 10.9473684,45.8947368 C10.9473684,45.1393684 10.3343158,44.5263158 9.57894737,44.5263158 C8.82357895,44.5263158 8.21052632,45.1393684 8.21052632,45.8947368 C8.21052632,48.2922105 9.09452632,50.4844211 10.556,52.1675789 C6.04021053,50.4816842 2.73684211,45.2406316 2.73684211,39.0526316 C2.73684211,35.8833684 3.62905263,32.7907368 5.24652632,30.3467368 C5.66252632,29.7172632 5.49010526,28.8661053 4.86063158,28.4501053 C4.23115789,28.0341053 3.38273684,28.2065263 2.964,28.836 C2.88736842,28.9509474 2.81347368,29.0686316 2.73957895,29.1835789 C2.78336842,24.7964211 3.79873684,20.5652632 5.71452632,16.7117895 C6.14147368,18.7233684 7.12947368,20.5789474 8.60189474,22.0814737 C8.87010526,22.3551579 9.22589474,22.492 9.57894737,22.492 C9.92378947,22.492 10.2713684,22.3606316 10.5368421,22.1006316 C11.076,21.5724211 11.0869474,20.7048421 10.556,20.1656842 C9.04252632,18.6221053 8.21052632,16.5804211 8.21052632,14.4210526 C8.21052632,12.0181053 9.25326316,9.79852632 10.9747368,8.27410526 C10.9555789,8.49578947 10.9473684,8.72021053 10.9473684,8.94736842 C10.9473684,9.50021053 11.0021053,10.0503158 11.1115789,10.5894737 C11.2429474,11.2381053 11.8149474,11.6869474 12.4498947,11.6869474 C12.5402105,11.6869474 12.6305263,11.6787368 12.7235789,11.6595789 C13.4652632,11.5090526 13.9414737,10.7865263 13.7936842,10.0475789 C13.7197895,9.68905263 13.6842105,9.31957895 13.6842105,8.95010526 C13.6842105,5.93136842 16.1391579,3.47642105 19.1578947,3.47642105 C22.1766316,3.47642105 24.6315789,5.93136842 24.6315789,8.95010526 L24.6315789,27.4675789 C23.1783158,26.1648421 21.2597895,25.3711579 19.1578947,25.3711579 C18.6023158,25.3711579 18.0467368,25.4286316 17.5048421,25.5381053 C16.7631579,25.6886316 16.2869474,26.4138947 16.4374737,27.1528421 C16.588,27.8917895 17.3105263,28.3707368 18.0522105,28.2202105 C18.4134737,28.1463158 18.7856842,28.108 19.1578947,28.108 C22.1766316,28.108 24.6315789,30.5629474 24.6315789,33.5816842 L24.6315789,45.8974737 C24.6315789,49.6688421 21.5608421,52.7395789 17.7894737,52.7395789 L17.7894737,52.7368421 Z M41.444,52.1648421 C42.9027368,50.4844211 43.7894737,48.2894737 43.7894737,45.8947368 C43.7894737,45.1393684 43.1764211,44.5263158 42.4210526,44.5263158 C41.6656842,44.5263158 41.0526316,45.1393684 41.0526316,45.8947368 C41.0526316,49.6661053 37.9818947,52.7368421 34.2105263,52.7368421 C30.4391579,52.7368421 27.3684211,49.6661053 27.3684211,45.8947368 L27.3684211,33.5789474 C27.3684211,30.5602105 29.8233684,28.1052632 32.8421053,28.1052632 C33.2143158,28.1052632 33.5865263,28.1435789 33.9477895,28.2174737 C34.6867368,28.368 35.412,27.8917895 35.5625263,27.1501053 C35.7130526,26.4084211 35.2368421,25.6858947 34.4951579,25.5353684 C33.9532632,25.4258947 33.3976842,25.3684211 32.8421053,25.3684211 C30.7402105,25.3684211 28.8216842,26.1621053 27.3684211,27.4648421 L27.3684211,8.94736842 C27.3684211,5.92863158 29.8233684,3.47368421 32.8421053,3.47368421 C35.8608421,3.47368421 38.3157895,5.92863158 38.3157895,8.94736842 C38.3157895,9.31684211 38.2802105,9.68631579 38.2063158,10.0448421 C38.0557895,10.7865263 38.5347368,11.5090526 39.2764211,11.6568421 C39.3694737,11.676 39.4597895,11.6842105 39.5501053,11.6842105 C40.1877895,11.6842105 40.7570526,11.2353684 40.8884211,10.5867368 C40.9978947,10.0503158 41.0526316,9.49747368 41.0526316,8.94736842 C41.0526316,8.72021053 41.0416842,8.49578947 41.0252632,8.27410526 C42.7467368,9.80126316 43.7894737,12.0181053 43.7894737,14.4210526 C43.7894737,16.5831579 42.9574737,18.6221053 41.444,20.1656842 C40.9157895,20.7048421 40.924,21.5724211 41.4631579,22.1006316 C41.7286316,22.3606316 42.0762105,22.492 42.4210526,22.492 C42.7768421,22.492 43.1298947,22.3551579 43.3981053,22.0814737 C44.8705263,20.5789474 45.8585263,18.7261053 46.2854737,16.7117895 C48.2012632,20.5625263 49.2166316,24.7964211 49.2604211,29.1835789 C49.1865263,29.0658947 49.1126316,28.9509474 49.036,28.836 C48.62,28.2065263 47.7688421,28.0341053 47.1393684,28.4501053 C46.5098947,28.8661053 46.3374737,29.7172632 46.7534737,30.3467368 C48.3709474,32.7907368 49.2631579,35.8833684 49.2631579,39.0526316 C49.2631579,45.2378947 45.9625263,50.4789474 41.444,52.1648421 Z" id="Shape" fill-rule="nonzero"></path>
                <path d="M17.7894737,19.8947368 C15.5261053,19.8947368 13.6842105,18.0528421 13.6842105,15.7894737 C13.6842105,15.0341053 14.2972632,14.4210526 15.0526316,14.4210526 C15.808,14.4210526 16.4210526,15.0341053 16.4210526,15.7894737 C16.4210526,16.5448421 17.0341053,17.1578947 17.7894737,17.1578947 C18.5448421,17.1578947 19.1578947,17.7709474 19.1578947,18.5263158 C19.1578947,19.2816842 18.5448421,19.8947368 17.7894737,19.8947368 Z" id="Path"></path>
                <path d="M17.5568421,41.7894737 C17.4063158,41.7894737 17.2503158,41.7648421 17.0997895,41.7101053 C16.3882105,41.4583158 16.0132632,40.6755789 16.2650526,39.964 C16.3690526,39.6711579 16.4210526,39.3646316 16.4210526,39.0526316 C16.4210526,37.5446316 15.1922105,36.3157895 13.6842105,36.3157895 C13.3694737,36.3157895 13.0629474,36.3677895 12.7728421,36.4717895 C12.0612632,36.7235789 11.2785263,36.3513684 11.0267368,35.6370526 C10.7749474,34.9227368 11.1471579,34.1427368 11.8614737,33.8909474 C12.4471579,33.6829474 13.0602105,33.5789474 13.6869474,33.5789474 C16.7056842,33.5789474 19.1606316,36.0338947 19.1606316,39.0526316 C19.1606316,39.6766316 19.0566316,40.2924211 18.8486316,40.8781053 C18.6488421,41.4391579 18.1206316,41.7894737 17.5595789,41.7894737 L17.5568421,41.7894737 Z" id="Path"></path>
            </g>
        </g>
        <g id="knowledge" transform="translate(833.000000, 291.000000)" fill-rule="nonzero">
            <circle id="Oval" fill="#00B8D9" cx="50" cy="50" r="50"></circle>
            <g id="site-map" transform="translate(20.000000, 26.000000)" fill="#FFFFFF">
                <path d="M53.6842105,31.7368421 L53.6842105,26.8421053 C53.6842105,24.2305263 51.5589474,22.1052632 48.9473684,22.1052632 L31.5789474,22.1052632 L31.5789474,15.6315789 C35.1789474,14.8989474 37.8947368,11.7094737 37.8947368,7.89473684 C37.8947368,3.54315789 34.3515789,0 30,0 C25.6484211,0 22.1052632,3.54315789 22.1052632,7.89473684 C22.1052632,11.7063158 24.8210526,14.8957895 28.4210526,15.6315789 L28.4210526,22.1052632 L11.0526316,22.1052632 C8.44105263,22.1052632 6.31578947,24.2305263 6.31578947,26.8421053 L6.31578947,31.7368421 C2.71578947,32.4694737 0,35.6589474 0,39.4736842 C0,43.8252632 3.54315789,47.3684211 7.89473684,47.3684211 C12.2463158,47.3684211 15.7894737,43.8252632 15.7894737,39.4736842 C15.7894737,35.6621053 13.0736842,32.4726316 9.47368421,31.7368421 L9.47368421,26.8421053 C9.47368421,25.9705263 10.1810526,25.2631579 11.0526316,25.2631579 L28.4210526,25.2631579 L28.4210526,31.7368421 C24.8210526,32.4694737 22.1052632,35.6589474 22.1052632,39.4736842 C22.1052632,43.8252632 25.6484211,47.3684211 30,47.3684211 C34.3515789,47.3684211 37.8947368,43.8252632 37.8947368,39.4736842 C37.8947368,35.6621053 35.1789474,32.4726316 31.5789474,31.7368421 L31.5789474,25.2631579 L48.9473684,25.2631579 C49.8189474,25.2631579 50.5263158,25.9705263 50.5263158,26.8421053 L50.5263158,31.7368421 C46.9263158,32.4694737 44.2105263,35.6589474 44.2105263,39.4736842 C44.2105263,43.8252632 47.7536842,47.3684211 52.1052632,47.3684211 C56.4568421,47.3684211 60,43.8252632 60,39.4736842 C60,35.6621053 57.2842105,32.4726316 53.6842105,31.7368421 Z M25.2631579,7.89473684 C25.2631579,5.28315789 27.3884211,3.15789474 30,3.15789474 C32.6115789,3.15789474 34.7368421,5.28315789 34.7368421,7.89473684 C34.7368421,10.5063158 32.6115789,12.6315789 30,12.6315789 C27.3884211,12.6315789 25.2631579,10.5063158 25.2631579,7.89473684 Z M12.6315789,39.4736842 C12.6315789,42.0852632 10.5063158,44.2105263 7.89473684,44.2105263 C5.28315789,44.2105263 3.15789474,42.0852632 3.15789474,39.4736842 C3.15789474,36.8621053 5.28315789,34.7368421 7.89473684,34.7368421 C10.5063158,34.7368421 12.6315789,36.8621053 12.6315789,39.4736842 Z M34.7368421,39.4736842 C34.7368421,42.0852632 32.6115789,44.2105263 30,44.2105263 C27.3884211,44.2105263 25.2631579,42.0852632 25.2631579,39.4736842 C25.2631579,36.8621053 27.3884211,34.7368421 30,34.7368421 C32.6115789,34.7368421 34.7368421,36.8621053 34.7368421,39.4736842 Z M52.1052632,44.2105263 C49.4936842,44.2105263 47.3684211,42.0852632 47.3684211,39.4736842 C47.3684211,36.8621053 49.4936842,34.7368421 52.1052632,34.7368421 C54.7168421,34.7368421 56.8421053,36.8621053 56.8421053,39.4736842 C56.8421053,42.0852632 54.7168421,44.2105263 52.1052632,44.2105263 Z" id="Shape"></path>
            </g>
        </g>
        <g id="achievment" transform="translate(262.000000, 593.000000)" fill-rule="nonzero">
            <circle id="Oval" fill="#00B8D9" cx="50" cy="50" r="50"></circle>
            <g id="crown" transform="translate(24.000000, 23.000000)" fill="#FFFFFF">
                <path d="M51.3,20.25 C51.3,18.0171 49.4829,16.2 47.25,16.2 C45.0171,16.2 43.2,18.0171 43.2,20.25 C43.2,21.735 44.0046,23.0364 45.2007,23.7411 C44.4474,26.7543 42.471,34.9812 41.337,42.8814 C39.7332,42.3279 37.5327,41.9283 35.1081,41.6583 C35.2431,34.4628 36.9252,20.1177 37.4139,16.0839 C39.1824,15.6492 40.5,14.0508 40.5,12.15 C40.5,9.9171 38.6829,8.1 36.45,8.1 C34.2171,8.1 32.4,9.9171 32.4,12.15 C32.4,13.7673 33.3531,15.1659 34.7247,15.8139 C34.2225,19.9395 32.5755,33.9741 32.4135,41.4126 C30.6099,41.2803 28.7604,41.2101 27,41.1858 L27,7.8705 C28.5714,7.3143 29.7,5.8131 29.7,4.0527 C29.7,1.8198 27.8829,0.0027 25.65,0.0027 C23.4171,0.0027 21.6,1.8198 21.6,4.0527 C21.6,5.8131 22.7286,7.3143 24.3,7.8705 L24.3,41.1858 C22.5396,41.2101 20.6901,41.283 18.8865,41.4126 C18.7245,33.9741 17.0748,19.9395 16.5753,15.8139 C17.9469,15.1659 18.9,13.7673 18.9,12.15 C18.9,9.9171 17.0829,8.1 14.85,8.1 C12.6171,8.1 10.8,9.9171 10.8,12.15 C10.8,14.0508 12.1176,15.6492 13.8861,16.0839 C14.3748,20.1177 16.0569,34.4628 16.1919,41.6583 C13.7673,41.931 11.5668,42.3279 9.963,42.8814 C8.8263,34.9812 6.8526,26.7543 6.0993,23.7411 C7.2954,23.0364 8.1,21.735 8.1,20.25 C8.1,18.0171 6.2829,16.2 4.05,16.2 C1.8171,16.2 0,18.0171 0,20.25 C0,22.2777 1.4958,23.9598 3.4425,24.2541 C4.4496,28.2852 8.1,43.5483 8.1,52.65 C8.1,53.1171 8.343,53.5518 8.7399,53.7975 C9.1368,54.0432 9.6336,54.0648 10.0521,53.8569 C12.3039,52.731 18.5706,51.975 25.6473,51.975 C32.724,51.975 38.9907,52.731 41.2425,53.8569 C41.4342,53.9514 41.6394,54 41.8473,54 C42.093,54 42.3414,53.9325 42.5574,53.7975 C42.9543,53.5518 43.1973,53.1171 43.1973,52.65 C43.1973,43.5483 46.8504,28.2852 47.8548,24.2541 C49.8015,23.9598 51.2973,22.275 51.2973,20.25 L51.3,20.25 Z M36.45,10.8 C37.1952,10.8 37.8,11.4048 37.8,12.15 C37.8,12.8952 37.1952,13.5 36.45,13.5 C35.7048,13.5 35.1,12.8952 35.1,12.15 C35.1,11.4048 35.7048,10.8 36.45,10.8 Z M14.85,10.8 C15.5952,10.8 16.2,11.4048 16.2,12.15 C16.2,12.8952 15.5952,13.5 14.85,13.5 C14.1048,13.5 13.5,12.8952 13.5,12.15 C13.5,11.4048 14.1048,10.8 14.85,10.8 Z M25.65,2.7 C26.3952,2.7 27,3.3048 27,4.05 C27,4.7952 26.3952,5.4 25.65,5.4 C24.9048,5.4 24.3,4.7952 24.3,4.05 C24.3,3.3048 24.9048,2.7 25.65,2.7 Z M2.7,20.25 C2.7,19.5048 3.3048,18.9 4.05,18.9 C4.7952,18.9 5.4,19.5048 5.4,20.25 C5.4,20.9952 4.7952,21.6 4.05,21.6 C3.3048,21.6 2.7,20.9952 2.7,20.25 Z M25.65,49.275 C20.6145,49.275 14.4963,49.6719 10.7541,50.7357 C10.6839,49.1319 10.53,47.4066 10.3221,45.6327 C12.7737,44.577 18.8352,43.875 25.65,43.875 C32.4648,43.875 38.5236,44.577 40.9779,45.6327 C40.77,47.4066 40.6161,49.1292 40.5459,50.7357 C36.8037,49.6746 30.6855,49.275 25.65,49.275 Z M47.25,21.6 C46.5048,21.6 45.9,20.9952 45.9,20.25 C45.9,19.5048 46.5048,18.9 47.25,18.9 C47.9952,18.9 48.6,19.5048 48.6,20.25 C48.6,20.9952 47.9952,21.6 47.25,21.6 Z" id="Shape"></path>
            </g>
        </g>
        <text id="Drive-Knowledge" font-family="HelveticaNeue-Medium, Helvetica Neue" font-size="24" font-weight="400" fill="#FFFFFF">
            <tspan x="568.82" y="429">Drive </tspan>
            <tspan x="535.256" y="457">Knowledge</tspan>
        </text>
        <text id="Drive-Productivity" font-family="HelveticaNeue-Medium, Helvetica Neue" font-size="24" font-weight="400" fill="#FFFFFF">
            <tspan x="568.82" y="549">Drive </tspan>
            <tspan x="531.248" y="577">Productivity</tspan>
        </text>
        <text id="Increase-Retention" font-family="HelveticaNeue-Medium, Helvetica Neue" font-size="24" font-weight="400" fill="#0065FF">
            <tspan x="556.352" y="83">Increase </tspan>
            <tspan x="549.932" y="111">Retention</tspan>
        </text>
        <text id="Gamified-quizzes-to" font-family="HelveticaNeue-Medium, Helvetica Neue" font-size="18" font-weight="400" fill="#5E6C84">
            <tspan x="699.812" y="78">Gamified quizzes to </tspan>
            <tspan x="689.453" y="100">increase retention and </tspan>
            <tspan x="705.455" y="122">assess knowledge</tspan>
        </text>
        <text id="Drive-Awareness" font-family="HelveticaNeue-Medium, Helvetica Neue" font-size="24" font-weight="400" fill="#0065FF">
            <tspan x="163.82" y="324">Drive </tspan>
            <tspan x="132.008" y="352">Awareness</tspan>
        </text>
        <text id="Bite-sized-informati" font-family="HelveticaNeue-Medium, Helvetica Neue" font-size="18" font-weight="400" fill="#5E6C84">
            <tspan x="100.47" y="396">Bite-sized information</tspan>
            <tspan x="112.467" y="418">through Twitter-like </tspan>
            <tspan x="141.654" y="440">SmartFeeds</tspan>
        </text>
        <text id="Recognize-Achievemen" font-family="HelveticaNeue-Medium, Helvetica Neue" font-size="24" font-weight="400" fill="#0065FF">
            <tspan x="253.024" y="734">Recognize </tspan>
            <tspan x="233.248" y="762">Achievements</tspan>
        </text>
        <text id="Reward-and-recognize" font-family="HelveticaNeue-Medium, Helvetica Neue" font-size="18" font-weight="400" fill="#5E6C84">
            <tspan x="217.949" y="803">Reward and recognize </tspan>
            <tspan x="223.304" y="825">performance through </tspan>
            <tspan x="220.127" y="847">redeemable badges &amp; </tspan>
            <tspan x="285.161" y="869">points</tspan>
        </text>
        <text id="Gamify-KPIs-&amp;-Activi" font-family="HelveticaNeue-Medium, Helvetica Neue" font-size="24" font-weight="400" fill="#0065FF">
            <tspan x="516.144" y="894">Gamify KPIs &amp; </tspan>
            <tspan x="545.028" y="922">Activities</tspan>
        </text>
        <text id="Transparent-KPI-trac" font-family="HelveticaNeue-Medium, Helvetica Neue" font-size="18" font-weight="400" fill="#5E6C84">
            <tspan x="496.454" y="955">Transparent KPI tracking </tspan>
            <tspan x="495.959" y="977">and gamification to drive </tspan>
            <tspan x="545.981" y="999">performance</tspan>
        </text>
        <text id="Improve-Call-Effecti" font-family="HelveticaNeue-Medium, Helvetica Neue" font-size="24" font-weight="400" fill="#0065FF">
            <tspan x="826.912" y="729">Improve Call </tspan>
            <tspan x="822.448" y="757">Effectiveness</tspan>
        </text>
        <text id="Systematic-video-coa" font-family="HelveticaNeue-Medium, Helvetica Neue" font-size="18" font-weight="400" fill="#5E6C84">
            <tspan x="783.951" y="793">Systematic video-coaching </tspan>
            <tspan x="797.451" y="815">process to performance</tspan>
        </text>
        <text id="Build-Tribal-Knowled" font-family="HelveticaNeue-Medium, Helvetica Neue" font-size="24" font-weight="400" fill="#0065FF">
            <tspan x="939.688" y="324">Build Tribal </tspan>
            <tspan x="939.256" y="352">Knowledge</tspan>
        </text>
        <text id="Discussion/Query-Res" font-family="HelveticaNeue-Medium, Helvetica Neue" font-size="18" font-weight="400" fill="#5E6C84">
            <tspan x="951.461" y="401">Discussion/Query </tspan>
            <tspan x="939.968" y="423">Resolution forum for </tspan>
            <tspan x="952.154" y="445">distributed teams</tspan>
        </text>
        <text id="Gamification" font-family="HelveticaNeue-Medium, Helvetica Neue" font-size="22" font-weight="400" fill="#FFFFFF">
            <tspan x="328.315" y="499">Gamification</tspan>
        </text>
        <text id="Analytics" font-family="HelveticaNeue-Medium, Helvetica Neue" font-size="22" font-weight="400" fill="#FFFFFF">
            <tspan x="760.234" y="501">Analytics</tspan>
        </text>
    </g>
</svg>