<?xml version="1.0" encoding="UTF-8"?>
<svg width="900px" height="600px" viewBox="0 0 900 600" version="1.1" xmlns="http://www.w3.org/2000/svg" xmlns:xlink="http://www.w3.org/1999/xlink">
    <!-- Generator: Sketch 48.2 (47327) - http://www.bohemiancoding.com/sketch -->
    <title>wave2</title>
    <desc>Created with Sketch.</desc>
    <defs>
        <rect id="path-1" x="0" y="0" width="900" height="600"></rect>
    </defs>
    <g id="wave2" stroke="none" stroke-width="1" fill="none" fill-rule="evenodd">
        <g>
            <g id="Rectangle">
                <use fill="#FFFFFF" fill-rule="evenodd" xlink:href="#path-1"></use>
                <rect stroke="#979797" stroke-width="1" x="0.5" y="0.5" width="899" height="599"></rect>
            </g>
            <path d="M0,453.938946 C64.9390989,553.163268 141.388477,584.57088 229.348135,548.161783 C361.287622,493.548137 280.585789,368.485981 408.247857,284.953114 C535.909925,201.420247 726.250252,355.702565 853.730988,270.991468 C938.718145,214.517404 981.311462,107.186914 981.51094,-51" id="Path-1" stroke-opacity="0.54" stroke="#0061EE"></path>
            <path d="M-8,462.938946 C56.9390989,562.163268 133.388477,593.57088 221.348135,557.161783 C353.287622,502.548137 272.585789,377.485981 400.247857,293.953114 C527.909925,210.420247 688.340217,358.928263 815.820953,274.217166 C900.80811,217.743101 953.371419,112.337379 973.51088,-42" id="Path-2" stroke-opacity="0.54" stroke="#0061EE"></path>
            <path d="M0,465.938946 C64.9390989,565.163268 141.388477,596.57088 229.348135,560.161783 C361.287622,505.548137 280.585789,380.485981 408.247857,296.953114 C535.909925,213.420247 696.340217,361.928263 823.820953,277.217166 C908.80811,220.743101 961.371419,115.337379 981.51088,-39" id="Path-2" stroke-opacity="0.54" stroke="#0061EE"></path>
            <path d="M0,475.938946 C64.9390989,575.163268 141.388477,606.57088 229.348135,570.161783 C361.287622,515.548137 280.585789,390.485981 408.247857,306.953114 C535.909925,223.420247 696.340217,371.928263 823.820953,287.217166 C908.80811,230.743101 961.371419,125.337379 981.51088,-29" id="Path-2" stroke-opacity="0.54" stroke="#0061EE"></path>
            <path d="M0,482.938946 C64.9390989,582.163268 141.388477,613.57088 229.348135,577.161783 C361.287622,522.548137 280.585789,397.485981 408.247857,313.953114 C535.909925,230.420247 741.030203,384.711097 868.510938,300 C953.498096,243.525935 991.164743,136.192602 981.51088,-22" id="Path-2" stroke-opacity="0.54" stroke="#0061EE"></path>
            <path d="M0,490.938946 C64.9390989,590.163268 141.388477,621.57088 229.348135,585.161783 C361.287622,530.548137 280.585789,405.485981 408.247857,321.953114 C535.909925,238.420247 741.030203,392.711097 868.510938,308 C953.498096,251.525935 991.164743,144.192602 981.51088,-14" id="Path-2" stroke-opacity="0.54" stroke="#0061EE"></path>
            <path d="M0,508.938946 C64.9390989,608.163268 141.388477,639.57088 229.348135,603.161783 C361.287622,548.548137 280.585789,423.485981 408.247857,339.953114 C535.909925,256.420247 658.516991,323.011067 785.997727,238.29997 C870.984884,181.825905 936.155935,103.725915 981.51088,4" id="Path-2" stroke-opacity="0.54" stroke="#0061EE"></path>
            <path d="M0,500.938946 C64.9390989,600.163268 141.388477,631.57088 229.348135,595.161783 C361.287622,540.548137 280.585789,415.485981 408.247857,331.953114 C535.909925,248.420247 658.516991,315.011067 785.997727,230.29997 C870.984884,173.825905 936.155935,95.7259153 981.51088,-4" id="Path-2" stroke-opacity="0.54" stroke="#0061EE"></path>
            <path d="M0,490.938946 C64.9390989,590.163268 141.388477,621.57088 229.348135,585.161783 C361.287622,530.548137 280.585789,405.485981 408.247857,321.953114 C535.909925,238.420247 733.127784,406.664211 860.608519,321.953114 C945.595677,265.479049 985.896463,153.494678 981.51088,-14" id="Path-2" stroke-opacity="0.54" stroke="#0061EE"></path>
            <path d="M0,503.938946 C64.9390989,603.163268 141.388477,634.57088 229.348135,598.161783 C361.287622,543.548137 280.585789,418.485981 408.247857,334.953114 C535.909925,251.420247 733.127784,419.664211 860.608519,334.953114 C945.595677,278.479049 985.896463,166.494678 981.51088,-1" id="Path-2" stroke-opacity="0.54" stroke="#0061EE"></path>
            <path d="M0,474.938946 C64.9390989,574.163268 141.388477,605.57088 229.348135,569.161783 C361.287622,514.548137 280.585789,389.485981 408.247857,305.953114 C535.909925,222.420247 741.143479,367.968846 868.624215,283.257749 C953.611373,226.783684 991.240261,122.364435 981.51088,-30" id="Path-2" stroke-opacity="0.54" stroke="#0061EE"></path>
            <path d="M0,483.938946 C64.9390989,583.163268 141.388477,614.57088 229.348135,578.161783 C361.287622,523.548137 280.585789,398.485981 408.247857,314.953114 C535.909925,231.420247 741.143479,376.968846 868.624215,292.257749 C953.611373,235.783684 991.240261,131.364435 981.51088,-21" id="Path-2" stroke-opacity="0.54" stroke="#0061EE"></path>
            <path d="M-8,447.938946 C58.458513,547.163268 136.696618,578.57088 226.714314,542.161783 C361.740858,487.548137 279.150802,362.485981 409.799846,278.953114 C540.44889,195.420247 750.484402,340.968846 880.947871,256.257749 C967.923518,199.783684 1006.43283,95.3644346 996.475804,-57" id="Path-2" stroke-opacity="0.54" stroke="#0061EE"></path>
            <path d="M0,519.938946 C64.9390989,619.163268 141.388477,650.57088 229.348135,614.161783 C361.287622,559.548137 280.585789,434.485981 408.247857,350.953114 C535.909925,267.420247 658.516991,334.011067 785.997727,249.29997 C870.984884,192.825905 936.155935,114.725915 981.51088,15" id="Path-2" stroke-opacity="0.54" stroke="#0061EE"></path>
            <path d="M0,529.938946 C64.9390989,629.163268 141.388477,660.57088 229.348135,624.161783 C361.287622,569.548137 280.585789,444.485981 408.247857,360.953114 C535.909925,277.420247 658.516991,344.011067 785.997727,259.29997 C870.984884,202.825905 936.155935,124.725915 981.51088,25" id="Path-2" stroke-opacity="0.54" stroke="#0061EE"></path>
        </g>
    </g>
</svg>