<?xml version="1.0" encoding="UTF-8"?>
<svg width="410px" height="526px" viewBox="0 0 410 526" version="1.1" xmlns="http://www.w3.org/2000/svg" xmlns:xlink="http://www.w3.org/1999/xlink">
    <!-- Generator: Sketch 48.2 (47327) - http://www.bohemiancoding.com/sketch -->
    <title>wave1</title>
    <desc>Created with Sketch.</desc>
    <defs></defs>
    <g id="Artboard" stroke="none" stroke-width="1" fill="none" fill-rule="evenodd" transform="translate(0.000000, -74.000000)" stroke-opacity="0.54">
        <g id="wave1" transform="translate(183.571005, 305.972566) rotate(11.000000) translate(-183.571005, -305.972566) translate(-269.928995, -81.027434)" stroke="#4030C6">
            <path d="M214.459543,732.757171 C249.769954,711.499942 277.120499,675.140152 296.511177,623.6778 C325.597195,546.484274 213.504988,419.823672 358.565282,350.304324 C503.625577,280.784977 380.905081,129.616827 452.456609,57.7937403 C500.157627,9.91168248 555.84001,-2.51422227 619.503757,20.516026" id="Path-2" transform="translate(416.981650, 371.026934) rotate(291.000000) translate(-416.981650, -371.026934) "></path>
            <path d="M208.606303,736.269115 C243.916714,715.011886 271.267259,678.652096 290.657937,627.189744 C319.743955,549.996218 207.651748,423.335616 352.712042,353.816268 C497.772337,284.296921 375.051841,133.128771 446.603368,61.3056843 C494.304387,13.4236265 549.98677,0.997721778 613.650517,24.0279701" id="Path-2" transform="translate(411.128410, 374.538878) rotate(291.000000) translate(-411.128410, -374.538878) "></path>
            <path d="M208.606303,736.269115 C243.916714,715.011886 271.267259,678.652096 290.657937,627.189744 C319.743955,549.996218 207.651748,423.335616 352.712042,353.816268 C497.772337,284.296921 375.051841,133.128771 446.603368,61.3056843 C494.304387,13.4236265 549.98677,0.997721778 613.650517,24.0279701" id="Path-2" transform="translate(411.128410, 374.538878) rotate(291.000000) translate(-411.128410, -374.538878) "></path>
            <path d="M228.507319,732.757171 C263.81773,711.499942 291.168275,675.140152 310.558953,623.6778 C339.644971,546.484274 227.552764,419.823672 372.613058,350.304324 C517.673353,280.784977 394.952857,129.616827 466.504385,57.7937403 C514.205403,9.91168248 569.887786,-2.51422227 633.551533,20.516026" id="Path-2" transform="translate(431.029426, 371.026934) rotate(291.000000) translate(-431.029426, -371.026934) "></path>
            <path d="M242.555095,732.757171 C277.865506,711.499942 305.216051,675.140152 324.60673,623.6778 C353.692747,546.484274 241.60054,419.823672 386.660835,350.304324 C531.721129,280.784977 409.000633,129.616827 480.552161,57.7937403 C528.253179,9.91168248 583.935562,-2.51422227 647.599309,20.516026" id="Path-2" transform="translate(445.077202, 371.026934) rotate(291.000000) translate(-445.077202, -371.026934) "></path>
            <path d="M253.090928,732.757171 C288.401339,711.499942 315.751883,675.140152 335.142562,623.6778 C364.228579,546.484274 252.136372,419.823672 397.196667,350.304324 C542.256961,280.784977 419.536466,129.616827 491.087993,57.7937403 C538.789012,9.91168248 594.471394,-2.51422227 658.135141,20.516026" id="Path-2" transform="translate(455.613035, 371.026934) rotate(291.000000) translate(-455.613035, -371.026934) "></path>
            <path d="M278.845184,732.757171 C314.155595,711.499942 341.50614,675.140152 360.896818,623.6778 C389.982836,546.484274 277.890629,419.823672 422.950923,350.304324 C568.011218,280.784977 445.290722,129.616827 516.84225,57.7937403 C564.543268,9.91168248 620.225651,-2.51422227 683.889398,20.516026" id="Path-2" transform="translate(481.367291, 371.026934) rotate(291.000000) translate(-481.367291, -371.026934) "></path>
            <path d="M264.797408,732.757171 C300.107819,711.499942 327.458363,675.140152 346.849042,623.6778 C375.935059,546.484274 263.842853,419.823672 408.903147,350.304324 C553.963441,280.784977 431.242946,129.616827 502.794473,57.7937403 C550.495492,9.91168248 606.177874,-2.51422227 669.841622,20.516026" id="Path-2" transform="translate(467.319515, 371.026934) rotate(291.000000) translate(-467.319515, -371.026934) "></path>
            <path d="M214.459543,733.927819 C301.527113,711.933191 354.745966,675.202299 374.116104,623.735145 C403.171309,546.534413 291.197846,419.861989 436.104473,350.336153 C581.0111,280.810317 458.420606,129.628057 529.896337,57.7982669 C577.546824,9.91173988 633.17022,-2.51532467 696.766526,20.5170732" id="Path-2" transform="translate(455.613035, 371.612258) rotate(291.000000) translate(-455.613035, -371.612258) "></path>
            <path d="M216.800839,737.439763 C310.725395,712.757648 367.379636,674.702334 386.763562,623.273821 C415.839449,546.131052 303.786281,419.553734 448.796055,350.080098 C593.80583,280.606463 471.128074,129.537712 542.654683,57.7618516 C590.339088,9.9112781 646.002079,-2.50645614 709.643654,20.5086489" id="Path-2" transform="translate(463.222247, 373.368230) rotate(291.000000) translate(-463.222247, -373.368230) "></path>
            <path d="M214.682913,736.247607 C326.886556,713.030417 392.666744,675.712919 412.023477,624.295116 C441.058578,547.16841 329.162597,420.617448 473.968952,351.158279 C618.775307,281.699109 496.269643,130.661815 567.695914,58.9008999 C615.313428,11.06029 670.898334,-1.35485851 734.450633,21.6554542" id="Path-2" transform="translate(474.566773, 373.346722) rotate(291.000000) translate(-474.566773, -373.346722) "></path>
            <path d="M201.152372,740.010813 C313.356015,716.793622 379.136203,679.476125 398.492937,628.058321 C427.528037,550.931615 315.632057,424.380654 460.438411,354.921484 C605.244766,285.462314 482.739102,134.42502 554.165373,62.6641052 C601.782887,14.8234954 657.367793,2.40834687 720.920092,25.4186596" id="Path-2" transform="translate(461.036232, 377.109927) rotate(291.000000) translate(-461.036232, -377.109927) "></path>
            <path d="M189.453326,763.677927 C301.656969,740.460737 367.437157,703.14324 386.793891,651.725436 C415.828991,574.59873 303.933011,448.047769 448.739365,378.588599 C593.54572,309.129429 471.040056,158.092135 542.466327,86.33122 C590.083841,38.4906102 645.668747,26.0754617 709.221046,49.0857743" id="Path-2" transform="translate(449.337186, 400.777042) rotate(291.000000) translate(-449.337186, -400.777042) "></path>
        </g>
    </g>
</svg>