<?xml version="1.0" encoding="UTF-8"?>
<svg width="900px" height="600px" viewBox="0 0 900 600" version="1.1" xmlns="http://www.w3.org/2000/svg" xmlns:xlink="http://www.w3.org/1999/xlink">
    <!-- Generator: Sketch 48.2 (47327) - http://www.bohemiancoding.com/sketch -->
    <title>wave3</title>
    <desc>Created with Sketch.</desc>
    <defs>
        <rect id="path-1" x="0" y="0" width="900" height="600"></rect>
    </defs>
    <g id="wave3" stroke="none" stroke-width="1" fill="none" fill-rule="evenodd">
        <g>
            <g id="Rectangle">
                <use fill="#FFFFFF" fill-rule="evenodd" xlink:href="#path-1"></use>
                <rect stroke="#979797" stroke-width="1" x="0.5" y="0.5" width="899" height="599"></rect>
            </g>
            <path d="M144.613905,593.14818 C277.48955,631.254955 387.907202,632.103793 475.866859,595.694696 C607.806346,541.08105 425.199695,347.64588 552.861762,264.113012 C680.52383,180.580145 870.864157,334.862464 998.344893,250.151367 C1083.33205,193.677302 1125.92537,86.3468127 1126.12485,-71.8401016" id="Path-1" stroke-opacity="0.54" stroke="#0061EE" transform="translate(635.369376, 275.269646) rotate(-23.000000) translate(-635.369376, -275.269646) "></path>
            <path d="M192.94771,638.504033 C298.828788,655.551784 395.749156,645.871112 483.708814,609.462014 C615.648301,554.848368 412.271781,357.08767 539.933849,273.554803 C667.595916,190.021936 839.175593,367.54067 966.656329,282.829573 C1051.64349,226.355508 1100.49033,111.279547 1113.19687,-62.3983108" id="Path-2" stroke-opacity="0.54" stroke="#0061EE" transform="translate(653.072291, 292.130344) rotate(-23.000000) translate(-653.072291, -292.130344) "></path>
            <path d="M127.920653,615.53948 C247.615329,637.939744 351.442495,630.935327 439.402153,594.52623 C571.34164,539.912584 422.022067,359.521555 549.684135,275.988687 C677.346203,192.45582 860.262755,343.266548 987.743491,258.555451 C1072.73065,202.081386 1117.79854,95.9080939 1122.94716,-59.9644265" id="Path-2" stroke-opacity="0.54" stroke="#0061EE" transform="translate(625.433905, 284.186659) rotate(-23.000000) translate(-625.433905, -284.186659) "></path>
            <path d="M145.202772,579.057342 C254.691546,628.442301 353.415762,634.930232 441.37542,598.521135 C573.314907,543.907489 425.788561,369.543323 553.450629,286.010456 C681.112697,202.477589 846.185455,366.357497 973.666191,281.6464 C1058.65335,225.172335 1109.66917,114.64265 1126.71365,-49.9426577" id="Path-2" stroke-opacity="0.54" stroke="#0061EE" transform="translate(635.958212, 285.877649) rotate(-23.000000) translate(-635.958212, -285.877649) "></path>
            <path d="M132.163669,592.089893 C267.755067,634.038598 379.530595,636.808402 467.490253,600.399305 C599.42974,545.785659 424.542427,376.239937 552.204495,292.70707 C679.866562,209.174203 884.98684,363.465053 1012.46758,278.753956 C1097.45473,222.279891 1135.12138,114.946558 1125.46752,-43.2460442" id="Path-2" stroke-opacity="0.54" stroke="#0061EE" transform="translate(629.554150, 291.264796) rotate(-23.000000) translate(-629.554150, -291.264796) "></path>
            <path d="M423.397252,597.251791 C361.761085,637.704802 374.92283,639.726759 462.882488,603.317662 C594.821975,548.704016 422.877573,371.120585 550.53964,287.587718 C678.201708,204.054851 883.321986,358.345701 1010.80272,273.634604 C1095.78988,217.160539 1133.45653,109.827206 1123.80266,-48.3653961" id="Path-2" stroke-opacity="0.54" stroke="#0061EE" transform="translate(755.292109, 290.411203) rotate(-23.000000) translate(-755.292109, -290.411203) "></path>
            <path d="M479.277436,613.60208 L145.11728,618.313017 C304.915333,662.186684 428.794188,665.918969 516.753846,629.509872 C648.693333,574.896226 425.703069,402.560717 553.365137,319.02785 C681.027204,235.494983 803.63427,302.085803 931.115006,217.374706 C1016.10216,160.900641 1081.27321,82.8006512 1126.62816,-16.9252641" id="Path-2" stroke-opacity="0.54" stroke="#0061EE" transform="translate(635.872719, 318.676242) rotate(-23.000000) translate(-635.872719, -318.676242) "></path>
            <path d="M144.65682,629.776811 C297.065914,667.66617 417.25029,668.406301 505.209948,631.997203 C637.149434,577.383557 425.242609,394.044042 552.904677,310.511174 C680.566745,226.978307 803.173811,293.569127 930.654547,208.85803 C1015.6417,152.383966 1080.81275,74.2839759 1126.1677,-25.4419394" id="Path-2" stroke-opacity="0.54" stroke="#0061EE" transform="translate(635.412260, 316.659024) rotate(-23.000000) translate(-635.412260, -316.659024) "></path>
            <path d="M150.106375,593.278434 C293.472339,662.200692 409.135151,678.457272 497.094809,642.048175 C629.034295,587.434529 430.692164,383.627697 558.354231,300.09483 C686.016299,216.561962 886.932572,389.538237 1011.93253,299.799915 C1095.26584,239.974367 1135.16075,128.0883 1131.61725,-35.8582844" id="Path-2" stroke-opacity="0.54" stroke="#0061EE" transform="translate(640.970212, 312.533889) rotate(-23.000000) translate(-640.970212, -312.533889) "></path>
            <path d="M145.036313,608.839163 C298.614984,656.201893 419.384148,661.678709 507.343805,625.269612 C639.283292,570.655966 425.622102,397.637644 553.28417,314.104777 C680.946238,230.57191 878.164097,398.815874 1005.64483,314.104777 C1090.63199,257.630713 1130.93278,145.646341 1126.54719,-21.8483367" id="Path-2" stroke-opacity="0.54" stroke="#0061EE" transform="translate(635.953156, 313.578790) rotate(-23.000000) translate(-635.953156, -313.578790) "></path>
            <path d="M142.603907,598.213842 C259.740092,628.020879 362.288014,624.719849 450.247671,588.310751 C582.187158,533.697105 423.189696,368.945917 550.851764,285.41305 C678.513832,201.880183 883.747386,347.428781 1011.22812,262.717685 C1096.21528,206.24362 1133.84417,101.82437 1124.11479,-50.5400642" id="Path-2" stroke-opacity="0.54" stroke="#0061EE" transform="translate(634.108906, 283.900065) rotate(-23.000000) translate(-634.108906, -283.900065) "></path>
            <path d="M120.339688,590.640968 C256.558548,628.852596 368.647807,629.753861 456.607465,593.344764 C588.546951,538.731118 423.398133,377.61523 551.060201,294.082363 C678.722269,210.549496 883.955823,356.098095 1011.43656,271.386998 C1096.42372,214.912933 1134.0526,110.493684 1124.32322,-41.8707508" id="Path-2" stroke-opacity="0.54" stroke="#0061EE" transform="translate(623.081015, 289.060608) rotate(-23.000000) translate(-623.081015, -289.060608) "></path>
            <path d="M142.860898,591.149445 C262.685532,620.893376 367.606697,617.560793 457.624393,581.151695 C592.650937,526.538049 422.0117,342.092457 552.660744,258.55959 C683.309788,175.026723 893.3453,320.575322 1023.80877,235.864225 C1110.78442,179.39016 1149.29373,74.9709105 1139.3367,-77.3935241" id="Path-2" stroke-opacity="0.54" stroke="#0061EE" transform="translate(641.865897, 266.908130) rotate(-23.000000) translate(-641.865897, -266.908130) "></path>
            <path d="M151.63565,615.143417 C302.49161,691.279232 421.89942,711.142592 509.859077,674.733494 C641.798564,620.119848 432.221439,412.437992 559.883507,328.905125 C687.545575,245.372257 810.152641,311.963078 937.633377,227.251981 C1022.62053,170.777916 1087.79158,92.677926 1133.14653,-7.04798929" id="Path-2" stroke-opacity="0.54" stroke="#0061EE" transform="translate(642.391090, 342.676708) rotate(-23.000000) translate(-642.391090, -342.676708) "></path>
            <path d="M145.491574,602.567272 C283.94521,668.503891 397.151857,683.267652 485.111515,646.858555 C617.051002,592.244909 426.077363,422.891471 553.739431,339.358603 C681.401499,255.825736 804.008565,322.416556 931.489301,237.705459 C1016.47646,181.231395 1081.64751,103.131405 1127.00245,3.4054894" id="Path-2" stroke-opacity="0.54" stroke="#0061EE" transform="translate(636.247014, 334.846320) rotate(-23.000000) translate(-636.247014, -334.846320) "></path>
        </g>
    </g>
</svg>