<svg xmlns="http://www.w3.org/2000/svg" viewBox="0 0 182.66 79.63"><defs><style>.a{fill:#00213c;}.b{fill:#ff3900;}</style></defs><title>poly-logo</title><path class="a" d="M149,266.15a13.7,13.7,0,0,0-13.92,14.19v26.92l7-4.05V291.43a11.28,11.28,0,0,0,7.07,2.27,13.78,13.78,0,1,0-.11-27.55Zm0,20.63a6.86,6.86,0,1,1,6.86-6.86A6.54,6.54,0,0,1,149,286.78Zm47.92-29.25,7-4.06v39.19h-7V257.53Zm-17.46,8.62a13.78,13.78,0,1,0,13.92,13.77A13.7,13.7,0,0,0,179.48,266.15Zm0,20.63a6.86,6.86,0,1,1,6.86-6.86A6.54,6.54,0,0,1,179.48,286.78ZM236,267.19l-16.37,37.42h-7.48l5.67-12.52-11-24.9h7.64l7.22,16.33,6.86-16.33Z" transform="translate(-53.3 -239.89)"/><path class="b" d="M113.18,274.5l-14.37,8.3.07-.39,0-.35,0-.57v-.09l0-.7v-1.32l0-.8-.06-.73-.07-.79-.06-.44-.11-.77-.14-.75-.15-.74-.18-.73-.12-.45-.21-.7-.23-.68-.21-.56-.27-.67-.29-.64-.3-.63-.33-.63-.36-.61,0-.06-.38-.6-.4-.6-.42-.58-.45-.58-.48-.58-.06-.06-.5-.56-.54-.56-.56-.56-.6-.55,0,0-.63-.55-.67-.55-.68-.52-.75-.56-.82-.57-.61-.41-.94-.6-1.06-.65-.35-.21-1.29-.77-.33-.18-.81-.48L53.37,239.89v10.54l14.37,8.29-.37.14-.32.14-.52.24,0,0,0,0-.62.33-.66.38-.48.28-.67.43-.61.42-.65.46-.35.27-.61.48-.59.49-.56.51-.54.51-.33.33-.5.53-.48.55-.38.46-.44.56-.41.57-.4.58-.37.6-.36.62,0,.05-.33.63-.32.65-.29.66-.28.67-.25.7,0,.09-.24.72-.21.74-.2.76-.18.79v.07l-.16.82-.14.86-.12.85-.1.93-.09,1,0,.74-.06,1.11,0,1.24v36.81l9.13-5.26V297.67l.3.25.28.21.48.33,0,0,0,0,.59.37.67.39.48.27.72.37.65.32.73.33.38.16.73.29.73.26.72.24.72.21.44.12.72.17.71.14.58.1.72.1.71.08.68.05.72,0h.76l.71,0,.73-.05.72-.08.73-.1.74-.13h.07l.75-.16.75-.18.77-.22.79-.24h0l.79-.28.82-.31.78-.32.87-.38.91-.43.65-.32,1-.51,1.1-.59.35-.19,1.32-.75.31-.18.82-.47,29.08-16.79ZM76.33,293.32a13.59,13.59,0,1,1,13.58-13.59A13.59,13.59,0,0,1,76.33,293.32Z" transform="translate(-53.3 -239.89)"/></svg>